G04 (created by PCBNEW (22-Jun-2014 BZR 4027)-stable) date Sun 02 Jul 2017 17:00:27 BST*
%MOIN*%
G04 Gerber Fmt 3.4, Leading zero omitted, Abs format*
%FSLAX34Y34*%
G01*
G70*
G90*
G04 APERTURE LIST*
%ADD10C,0.00590551*%
%ADD11C,0.00984252*%
%ADD12C,0.011811*%
G04 APERTURE END LIST*
G54D10*
G54D11*
X60684Y-26440D02*
X60646Y-26459D01*
X60571Y-26459D01*
X60534Y-26440D01*
X60515Y-26421D01*
X60497Y-26384D01*
X60497Y-26271D01*
X60515Y-26234D01*
X60534Y-26215D01*
X60571Y-26196D01*
X60646Y-26196D01*
X60684Y-26215D01*
X61021Y-26196D02*
X61021Y-26459D01*
X60853Y-26196D02*
X60853Y-26403D01*
X60871Y-26440D01*
X60909Y-26459D01*
X60965Y-26459D01*
X61003Y-26440D01*
X61021Y-26421D01*
X61153Y-26196D02*
X61303Y-26196D01*
X61209Y-26065D02*
X61209Y-26403D01*
X61228Y-26440D01*
X61265Y-26459D01*
X61303Y-26459D01*
X61790Y-26459D02*
X61753Y-26440D01*
X61734Y-26421D01*
X61715Y-26384D01*
X61715Y-26271D01*
X61734Y-26234D01*
X61753Y-26215D01*
X61790Y-26196D01*
X61846Y-26196D01*
X61884Y-26215D01*
X61903Y-26234D01*
X61921Y-26271D01*
X61921Y-26384D01*
X61903Y-26421D01*
X61884Y-26440D01*
X61846Y-26459D01*
X61790Y-26459D01*
X62259Y-26196D02*
X62259Y-26459D01*
X62090Y-26196D02*
X62090Y-26403D01*
X62109Y-26440D01*
X62146Y-26459D01*
X62203Y-26459D01*
X62240Y-26440D01*
X62259Y-26421D01*
X62390Y-26196D02*
X62540Y-26196D01*
X62446Y-26065D02*
X62446Y-26403D01*
X62465Y-26440D01*
X62502Y-26459D01*
X62540Y-26459D01*
G54D12*
X60521Y-23768D02*
X60476Y-23791D01*
X60386Y-23791D01*
X60341Y-23768D01*
X60318Y-23746D01*
X60296Y-23701D01*
X60296Y-23566D01*
X60318Y-23521D01*
X60341Y-23498D01*
X60386Y-23476D01*
X60476Y-23476D01*
X60521Y-23498D01*
X60926Y-23476D02*
X60926Y-23791D01*
X60723Y-23476D02*
X60723Y-23723D01*
X60746Y-23768D01*
X60791Y-23791D01*
X60858Y-23791D01*
X60903Y-23768D01*
X60926Y-23746D01*
X61083Y-23476D02*
X61263Y-23476D01*
X61151Y-23318D02*
X61151Y-23723D01*
X61173Y-23768D01*
X61218Y-23791D01*
X61263Y-23791D01*
X61848Y-23791D02*
X61803Y-23768D01*
X61781Y-23746D01*
X61758Y-23701D01*
X61758Y-23566D01*
X61781Y-23521D01*
X61803Y-23498D01*
X61848Y-23476D01*
X61916Y-23476D01*
X61961Y-23498D01*
X61983Y-23521D01*
X62006Y-23566D01*
X62006Y-23701D01*
X61983Y-23746D01*
X61961Y-23768D01*
X61916Y-23791D01*
X61848Y-23791D01*
X62411Y-23476D02*
X62411Y-23791D01*
X62208Y-23476D02*
X62208Y-23723D01*
X62231Y-23768D01*
X62276Y-23791D01*
X62343Y-23791D01*
X62388Y-23768D01*
X62411Y-23746D01*
X62568Y-23476D02*
X62748Y-23476D01*
X62636Y-23318D02*
X62636Y-23723D01*
X62658Y-23768D01*
X62703Y-23791D01*
X62748Y-23791D01*
X60487Y-31804D02*
X60515Y-31776D01*
X60571Y-31748D01*
X60712Y-31748D01*
X60768Y-31776D01*
X60796Y-31804D01*
X60825Y-31860D01*
X60825Y-31917D01*
X60796Y-32001D01*
X60459Y-32339D01*
X60825Y-32339D01*
X61190Y-31748D02*
X61246Y-31748D01*
X61303Y-31776D01*
X61331Y-31804D01*
X61359Y-31860D01*
X61387Y-31973D01*
X61387Y-32114D01*
X61359Y-32226D01*
X61331Y-32282D01*
X61303Y-32310D01*
X61246Y-32339D01*
X61190Y-32339D01*
X61134Y-32310D01*
X61106Y-32282D01*
X61078Y-32226D01*
X61050Y-32114D01*
X61050Y-31973D01*
X61078Y-31860D01*
X61106Y-31804D01*
X61134Y-31776D01*
X61190Y-31748D01*
X61949Y-32339D02*
X61612Y-32339D01*
X61781Y-32339D02*
X61781Y-31748D01*
X61724Y-31832D01*
X61668Y-31889D01*
X61612Y-31917D01*
X62146Y-31748D02*
X62540Y-31748D01*
X62287Y-32339D01*
X58983Y-30829D02*
X58786Y-30829D01*
X58786Y-31139D02*
X58786Y-30548D01*
X59067Y-30548D01*
X59545Y-31139D02*
X59545Y-30829D01*
X59517Y-30773D01*
X59461Y-30745D01*
X59348Y-30745D01*
X59292Y-30773D01*
X59545Y-31110D02*
X59489Y-31139D01*
X59348Y-31139D01*
X59292Y-31110D01*
X59264Y-31054D01*
X59264Y-30998D01*
X59292Y-30942D01*
X59348Y-30914D01*
X59489Y-30914D01*
X59545Y-30885D01*
X60079Y-31110D02*
X60023Y-31139D01*
X59911Y-31139D01*
X59854Y-31110D01*
X59826Y-31082D01*
X59798Y-31026D01*
X59798Y-30857D01*
X59826Y-30801D01*
X59854Y-30773D01*
X59911Y-30745D01*
X60023Y-30745D01*
X60079Y-30773D01*
X60557Y-31110D02*
X60501Y-31139D01*
X60389Y-31139D01*
X60332Y-31110D01*
X60304Y-31054D01*
X60304Y-30829D01*
X60332Y-30773D01*
X60389Y-30745D01*
X60501Y-30745D01*
X60557Y-30773D01*
X60586Y-30829D01*
X60586Y-30885D01*
X60304Y-30942D01*
X60923Y-31139D02*
X60867Y-31110D01*
X60839Y-31054D01*
X60839Y-30548D01*
X61373Y-31110D02*
X61317Y-31139D01*
X61204Y-31139D01*
X61148Y-31110D01*
X61120Y-31054D01*
X61120Y-30829D01*
X61148Y-30773D01*
X61204Y-30745D01*
X61317Y-30745D01*
X61373Y-30773D01*
X61401Y-30829D01*
X61401Y-30885D01*
X61120Y-30942D01*
X61626Y-31110D02*
X61682Y-31139D01*
X61795Y-31139D01*
X61851Y-31110D01*
X61879Y-31054D01*
X61879Y-31026D01*
X61851Y-30970D01*
X61795Y-30942D01*
X61710Y-30942D01*
X61654Y-30914D01*
X61626Y-30857D01*
X61626Y-30829D01*
X61654Y-30773D01*
X61710Y-30745D01*
X61795Y-30745D01*
X61851Y-30773D01*
X62104Y-31110D02*
X62160Y-31139D01*
X62273Y-31139D01*
X62329Y-31110D01*
X62357Y-31054D01*
X62357Y-31026D01*
X62329Y-30970D01*
X62273Y-30942D01*
X62188Y-30942D01*
X62132Y-30914D01*
X62104Y-30857D01*
X62104Y-30829D01*
X62132Y-30773D01*
X62188Y-30745D01*
X62273Y-30745D01*
X62329Y-30773D01*
X62526Y-30745D02*
X62751Y-30745D01*
X62610Y-30548D02*
X62610Y-31054D01*
X62638Y-31110D01*
X62695Y-31139D01*
X62751Y-31139D01*
X63173Y-31110D02*
X63116Y-31139D01*
X63004Y-31139D01*
X62948Y-31110D01*
X62920Y-31054D01*
X62920Y-30829D01*
X62948Y-30773D01*
X63004Y-30745D01*
X63116Y-30745D01*
X63173Y-30773D01*
X63201Y-30829D01*
X63201Y-30885D01*
X62920Y-30942D01*
X63707Y-31110D02*
X63651Y-31139D01*
X63538Y-31139D01*
X63482Y-31110D01*
X63454Y-31082D01*
X63426Y-31026D01*
X63426Y-30857D01*
X63454Y-30801D01*
X63482Y-30773D01*
X63538Y-30745D01*
X63651Y-30745D01*
X63707Y-30773D01*
X63960Y-31139D02*
X63960Y-30548D01*
X64213Y-31139D02*
X64213Y-30829D01*
X64185Y-30773D01*
X64129Y-30745D01*
X64044Y-30745D01*
X63988Y-30773D01*
X63960Y-30801D01*
G54D10*
X63850Y-20700D02*
X59150Y-20700D01*
X59150Y-20950D02*
X59150Y-15000D01*
X59150Y-15000D02*
X63850Y-15000D01*
X63850Y-15000D02*
X63850Y-20900D01*
X59700Y-22400D02*
X59150Y-22400D01*
X63300Y-22400D02*
X63850Y-22400D01*
X64250Y-37950D02*
X64250Y-41900D01*
X64250Y-41900D02*
X58750Y-41900D01*
X64250Y-36300D02*
X64250Y-36650D01*
X64250Y-36300D02*
X63300Y-36300D01*
X58750Y-38000D02*
X58750Y-41900D01*
X58750Y-36300D02*
X58750Y-36650D01*
X58750Y-36300D02*
X59700Y-36300D01*
M02*
