G04 (created by PCBNEW (22-Jun-2014 BZR 4027)-stable) date Sun 02 Jul 2017 17:00:27 BST*
%MOIN*%
G04 Gerber Fmt 3.4, Leading zero omitted, Abs format*
%FSLAX34Y34*%
G01*
G70*
G90*
G04 APERTURE LIST*
%ADD10C,0.00590551*%
%ADD11C,0.0001*%
%ADD12C,0.110236*%
%ADD13C,0.0472441*%
%ADD14C,0.0551181*%
%ADD15C,0.01*%
G04 APERTURE END LIST*
G54D10*
G54D11*
G36*
X60122Y-30178D02*
X60165Y-30178D01*
X60165Y-28970D01*
X60165Y-28916D01*
X60165Y-28859D01*
X60165Y-28815D01*
X60166Y-28782D01*
X60167Y-28759D01*
X60169Y-28744D01*
X60171Y-28735D01*
X60174Y-28732D01*
X60184Y-28730D01*
X60205Y-28725D01*
X60236Y-28719D01*
X60275Y-28711D01*
X60319Y-28703D01*
X60348Y-28698D01*
X60394Y-28689D01*
X60436Y-28681D01*
X60471Y-28674D01*
X60497Y-28668D01*
X60512Y-28665D01*
X60516Y-28663D01*
X60520Y-28655D01*
X60529Y-28636D01*
X60541Y-28609D01*
X60555Y-28577D01*
X60570Y-28542D01*
X60585Y-28506D01*
X60599Y-28472D01*
X60611Y-28443D01*
X60619Y-28421D01*
X60624Y-28408D01*
X60624Y-28407D01*
X60620Y-28397D01*
X60610Y-28378D01*
X60594Y-28354D01*
X60579Y-28331D01*
X60535Y-28269D01*
X60500Y-28217D01*
X60473Y-28176D01*
X60453Y-28145D01*
X60440Y-28123D01*
X60434Y-28110D01*
X60433Y-28108D01*
X60438Y-28100D01*
X60451Y-28084D01*
X60471Y-28062D01*
X60497Y-28035D01*
X60525Y-28005D01*
X60556Y-27974D01*
X60587Y-27943D01*
X60616Y-27914D01*
X60642Y-27889D01*
X60663Y-27869D01*
X60678Y-27857D01*
X60684Y-27853D01*
X60692Y-27857D01*
X60710Y-27868D01*
X60736Y-27884D01*
X60768Y-27906D01*
X60806Y-27931D01*
X60836Y-27952D01*
X60877Y-27979D01*
X60913Y-28004D01*
X60944Y-28024D01*
X60968Y-28039D01*
X60984Y-28048D01*
X60989Y-28051D01*
X60999Y-28048D01*
X61020Y-28041D01*
X61048Y-28030D01*
X61081Y-28016D01*
X61117Y-28002D01*
X61152Y-27986D01*
X61184Y-27972D01*
X61211Y-27959D01*
X61230Y-27950D01*
X61239Y-27944D01*
X61239Y-27944D01*
X61242Y-27934D01*
X61247Y-27913D01*
X61253Y-27882D01*
X61261Y-27843D01*
X61269Y-27799D01*
X61274Y-27775D01*
X61282Y-27729D01*
X61291Y-27686D01*
X61298Y-27650D01*
X61304Y-27622D01*
X61308Y-27604D01*
X61309Y-27600D01*
X61312Y-27595D01*
X61315Y-27592D01*
X61322Y-27589D01*
X61333Y-27587D01*
X61350Y-27586D01*
X61375Y-27585D01*
X61410Y-27585D01*
X61456Y-27584D01*
X61492Y-27584D01*
X61543Y-27585D01*
X61588Y-27585D01*
X61625Y-27587D01*
X61653Y-27588D01*
X61669Y-27590D01*
X61673Y-27591D01*
X61675Y-27599D01*
X61680Y-27620D01*
X61686Y-27650D01*
X61694Y-27689D01*
X61702Y-27733D01*
X61709Y-27770D01*
X61718Y-27817D01*
X61727Y-27861D01*
X61735Y-27898D01*
X61742Y-27926D01*
X61747Y-27944D01*
X61750Y-27949D01*
X61760Y-27956D01*
X61780Y-27965D01*
X61808Y-27977D01*
X61841Y-27991D01*
X61877Y-28005D01*
X61912Y-28019D01*
X61945Y-28032D01*
X61973Y-28041D01*
X61993Y-28047D01*
X62002Y-28049D01*
X62010Y-28044D01*
X62029Y-28032D01*
X62055Y-28015D01*
X62088Y-27993D01*
X62126Y-27968D01*
X62152Y-27949D01*
X62192Y-27922D01*
X62227Y-27898D01*
X62258Y-27878D01*
X62282Y-27863D01*
X62296Y-27855D01*
X62300Y-27853D01*
X62308Y-27858D01*
X62324Y-27871D01*
X62346Y-27892D01*
X62374Y-27919D01*
X62407Y-27951D01*
X62432Y-27976D01*
X62473Y-28017D01*
X62505Y-28050D01*
X62528Y-28075D01*
X62542Y-28093D01*
X62550Y-28105D01*
X62551Y-28112D01*
X62546Y-28121D01*
X62535Y-28140D01*
X62517Y-28168D01*
X62495Y-28201D01*
X62470Y-28238D01*
X62455Y-28260D01*
X62429Y-28299D01*
X62405Y-28335D01*
X62385Y-28366D01*
X62371Y-28389D01*
X62363Y-28404D01*
X62362Y-28408D01*
X62365Y-28418D01*
X62372Y-28438D01*
X62383Y-28466D01*
X62397Y-28499D01*
X62411Y-28535D01*
X62426Y-28571D01*
X62441Y-28603D01*
X62453Y-28631D01*
X62463Y-28651D01*
X62468Y-28661D01*
X62468Y-28661D01*
X62477Y-28664D01*
X62497Y-28669D01*
X62527Y-28676D01*
X62565Y-28684D01*
X62609Y-28692D01*
X62638Y-28698D01*
X62685Y-28707D01*
X62727Y-28715D01*
X62763Y-28722D01*
X62791Y-28727D01*
X62808Y-28731D01*
X62812Y-28732D01*
X62815Y-28740D01*
X62818Y-28760D01*
X62819Y-28789D01*
X62821Y-28825D01*
X62822Y-28867D01*
X62822Y-28910D01*
X62822Y-28954D01*
X62822Y-28996D01*
X62820Y-29033D01*
X62818Y-29064D01*
X62816Y-29085D01*
X62813Y-29095D01*
X62813Y-29095D01*
X62803Y-29098D01*
X62782Y-29103D01*
X62752Y-29110D01*
X62713Y-29118D01*
X62669Y-29126D01*
X62645Y-29131D01*
X62600Y-29139D01*
X62558Y-29148D01*
X62523Y-29156D01*
X62497Y-29162D01*
X62481Y-29167D01*
X62478Y-29169D01*
X62473Y-29178D01*
X62464Y-29198D01*
X62452Y-29226D01*
X62437Y-29259D01*
X62423Y-29296D01*
X62408Y-29333D01*
X62394Y-29368D01*
X62382Y-29398D01*
X62374Y-29422D01*
X62370Y-29436D01*
X62369Y-29438D01*
X62373Y-29446D01*
X62384Y-29464D01*
X62401Y-29490D01*
X62422Y-29522D01*
X62447Y-29559D01*
X62461Y-29579D01*
X62488Y-29618D01*
X62511Y-29653D01*
X62530Y-29684D01*
X62544Y-29707D01*
X62552Y-29721D01*
X62553Y-29725D01*
X62548Y-29732D01*
X62535Y-29748D01*
X62515Y-29770D01*
X62490Y-29797D01*
X62461Y-29827D01*
X62431Y-29858D01*
X62400Y-29889D01*
X62371Y-29918D01*
X62345Y-29943D01*
X62324Y-29963D01*
X62310Y-29976D01*
X62303Y-29980D01*
X62296Y-29976D01*
X62279Y-29966D01*
X62254Y-29949D01*
X62222Y-29928D01*
X62186Y-29903D01*
X62164Y-29888D01*
X62125Y-29862D01*
X62090Y-29839D01*
X62060Y-29819D01*
X62037Y-29805D01*
X62023Y-29797D01*
X62020Y-29796D01*
X62010Y-29799D01*
X61991Y-29808D01*
X61966Y-29820D01*
X61949Y-29829D01*
X61919Y-29844D01*
X61899Y-29853D01*
X61884Y-29853D01*
X61873Y-29844D01*
X61863Y-29825D01*
X61850Y-29793D01*
X61848Y-29789D01*
X61840Y-29770D01*
X61828Y-29739D01*
X61812Y-29700D01*
X61793Y-29653D01*
X61771Y-29602D01*
X61749Y-29547D01*
X61734Y-29512D01*
X61712Y-29459D01*
X61692Y-29409D01*
X61675Y-29366D01*
X61660Y-29329D01*
X61649Y-29301D01*
X61643Y-29283D01*
X61641Y-29278D01*
X61647Y-29269D01*
X61661Y-29255D01*
X61682Y-29238D01*
X61691Y-29231D01*
X61750Y-29182D01*
X61795Y-29130D01*
X61828Y-29075D01*
X61849Y-29015D01*
X61859Y-28948D01*
X61860Y-28912D01*
X61854Y-28840D01*
X61835Y-28774D01*
X61802Y-28713D01*
X61757Y-28658D01*
X61740Y-28642D01*
X61683Y-28600D01*
X61621Y-28570D01*
X61556Y-28552D01*
X61490Y-28547D01*
X61423Y-28553D01*
X61359Y-28572D01*
X61298Y-28602D01*
X61243Y-28645D01*
X61224Y-28663D01*
X61179Y-28720D01*
X61148Y-28780D01*
X61129Y-28845D01*
X61123Y-28916D01*
X61123Y-28917D01*
X61130Y-28988D01*
X61149Y-29055D01*
X61181Y-29116D01*
X61227Y-29172D01*
X61285Y-29224D01*
X61301Y-29236D01*
X61322Y-29252D01*
X61337Y-29266D01*
X61344Y-29276D01*
X61345Y-29277D01*
X61342Y-29287D01*
X61335Y-29307D01*
X61324Y-29334D01*
X61311Y-29366D01*
X61310Y-29370D01*
X61298Y-29399D01*
X61281Y-29438D01*
X61262Y-29485D01*
X61240Y-29537D01*
X61217Y-29592D01*
X61195Y-29647D01*
X61193Y-29651D01*
X61172Y-29701D01*
X61153Y-29746D01*
X61136Y-29786D01*
X61122Y-29818D01*
X61112Y-29841D01*
X61106Y-29854D01*
X61105Y-29855D01*
X61096Y-29855D01*
X61078Y-29848D01*
X61052Y-29837D01*
X61036Y-29829D01*
X61008Y-29815D01*
X60985Y-29804D01*
X60969Y-29797D01*
X60964Y-29796D01*
X60956Y-29800D01*
X60938Y-29811D01*
X60912Y-29827D01*
X60880Y-29848D01*
X60844Y-29873D01*
X60833Y-29880D01*
X60796Y-29906D01*
X60761Y-29929D01*
X60732Y-29949D01*
X60710Y-29963D01*
X60697Y-29972D01*
X60695Y-29973D01*
X60689Y-29975D01*
X60683Y-29974D01*
X60675Y-29970D01*
X60663Y-29962D01*
X60647Y-29947D01*
X60624Y-29926D01*
X60595Y-29897D01*
X60556Y-29859D01*
X60556Y-29859D01*
X60520Y-29822D01*
X60488Y-29789D01*
X60463Y-29762D01*
X60444Y-29740D01*
X60435Y-29727D01*
X60433Y-29724D01*
X60437Y-29714D01*
X60448Y-29695D01*
X60464Y-29668D01*
X60486Y-29635D01*
X60511Y-29598D01*
X60525Y-29577D01*
X60551Y-29539D01*
X60574Y-29504D01*
X60594Y-29475D01*
X60608Y-29453D01*
X60616Y-29440D01*
X60617Y-29438D01*
X60614Y-29429D01*
X60607Y-29409D01*
X60596Y-29382D01*
X60584Y-29349D01*
X60569Y-29313D01*
X60554Y-29277D01*
X60540Y-29242D01*
X60527Y-29211D01*
X60517Y-29188D01*
X60510Y-29174D01*
X60509Y-29172D01*
X60503Y-29167D01*
X60490Y-29163D01*
X60470Y-29157D01*
X60441Y-29150D01*
X60403Y-29142D01*
X60353Y-29133D01*
X60291Y-29121D01*
X60253Y-29114D01*
X60223Y-29109D01*
X60198Y-29104D01*
X60181Y-29100D01*
X60177Y-29099D01*
X60173Y-29097D01*
X60170Y-29093D01*
X60168Y-29083D01*
X60167Y-29068D01*
X60166Y-29045D01*
X60165Y-29013D01*
X60165Y-28970D01*
X60165Y-30178D01*
X61500Y-30178D01*
X62878Y-30178D01*
X62878Y-28800D01*
X62878Y-27422D01*
X61500Y-27422D01*
X60122Y-27422D01*
X60122Y-28800D01*
X60122Y-30178D01*
X60122Y-30178D01*
X60122Y-30178D01*
G37*
G54D12*
X63800Y-21650D03*
X59200Y-21650D03*
G54D13*
X62900Y-22400D03*
X61900Y-22400D03*
X61100Y-22400D03*
X60100Y-22400D03*
G54D12*
X64150Y-37300D03*
X58850Y-37300D03*
G54D14*
X61900Y-36300D03*
X61100Y-36300D03*
X60100Y-36300D03*
X62900Y-36300D03*
G54D15*
X58850Y-37300D02*
X61900Y-37300D01*
X61900Y-37300D02*
X62900Y-36300D01*
X64150Y-37300D02*
X63900Y-37300D01*
X63900Y-37300D02*
X62900Y-36300D01*
X62900Y-22400D02*
X63300Y-22800D01*
X66700Y-32500D02*
X62900Y-36300D01*
X66700Y-23500D02*
X66700Y-32500D01*
X66000Y-22800D02*
X66700Y-23500D01*
X63300Y-22800D02*
X66000Y-22800D01*
X63800Y-21650D02*
X63650Y-21650D01*
X63650Y-21650D02*
X62900Y-22400D01*
X59200Y-21650D02*
X62150Y-21650D01*
X62150Y-21650D02*
X62900Y-22400D01*
M02*
