G04 (created by PCBNEW (22-Jun-2014 BZR 4027)-stable) date Sun 02 Jul 2017 17:00:27 BST*
%MOIN*%
G04 Gerber Fmt 3.4, Leading zero omitted, Abs format*
%FSLAX34Y34*%
G01*
G70*
G90*
G04 APERTURE LIST*
%ADD10C,0.00590551*%
%ADD11C,0.011811*%
G04 APERTURE END LIST*
G54D10*
G54D11*
X63032Y-31139D02*
X63032Y-30548D01*
X63032Y-30829D02*
X62695Y-30829D01*
X62695Y-31139D02*
X62695Y-30548D01*
X62160Y-31139D02*
X62160Y-30829D01*
X62188Y-30773D01*
X62245Y-30745D01*
X62357Y-30745D01*
X62413Y-30773D01*
X62160Y-31110D02*
X62217Y-31139D01*
X62357Y-31139D01*
X62413Y-31110D01*
X62442Y-31054D01*
X62442Y-30998D01*
X62413Y-30942D01*
X62357Y-30914D01*
X62217Y-30914D01*
X62160Y-30885D01*
X61964Y-30745D02*
X61739Y-30745D01*
X61879Y-30548D02*
X61879Y-31054D01*
X61851Y-31110D01*
X61795Y-31139D01*
X61739Y-31139D01*
X61682Y-31195D02*
X61232Y-31195D01*
X61176Y-30745D02*
X60951Y-30745D01*
X61092Y-31139D02*
X61092Y-30632D01*
X61064Y-30576D01*
X61007Y-30548D01*
X60951Y-30548D01*
X60501Y-31139D02*
X60501Y-30829D01*
X60529Y-30773D01*
X60586Y-30745D01*
X60698Y-30745D01*
X60754Y-30773D01*
X60501Y-31110D02*
X60557Y-31139D01*
X60698Y-31139D01*
X60754Y-31110D01*
X60782Y-31054D01*
X60782Y-30998D01*
X60754Y-30942D01*
X60698Y-30914D01*
X60557Y-30914D01*
X60501Y-30885D01*
X60220Y-30745D02*
X60220Y-31139D01*
X60220Y-30801D02*
X60192Y-30773D01*
X60136Y-30745D01*
X60051Y-30745D01*
X59995Y-30773D01*
X59967Y-30829D01*
X59967Y-31139D01*
M02*
